<svg height="24" viewBox="0 0 24 24" width="24" xmlns="http://www.w3.org/2000/svg"><g fill-rule="evenodd"><path d="m12.8 6.5v1.5h2.2c3.3137085 0 6 2.6862915 6 6s-2.6862915 6-6 6h-6c-3.3137085 0-6-2.6862915-6-6s2.6862915-6 6-6h2.2v-1.5c0-2.09868205 1.701318-3.8 3.8-3.8v1.6c-1.2150264 0-2.2.98497355-2.2 2.2zm-3.8 3.1c-2.4300529 0-4.4 1.9699471-4.4 4.4s1.9699471 4.4 4.4 4.4h6c2.4300529 0 4.4-1.9699471 4.4-4.4s-1.9699471-4.4-4.4-4.4z" fill-rule="nonzero"/><path d="m7.7 13.2v-1.7h1.6v1.7h1.7v1.6h-1.7v1.7h-1.6v-1.7h-1.7v-1.6z" fill-rule="nonzero"/><circle cx="16.75" cy="12.75" r="1.25"/><circle cx="14.25" cy="15.25" r="1.25"/></g></svg>
