<svg height="24" viewBox="0 0 24 24" width="24" xmlns="http://www.w3.org/2000/svg"><g fill="#000" fill-rule="nonzero"><path d="m7 9.41466259c0 2.54210121 2.23857625 4.58533741 5 4.58533741 2.7558048 0 5-2.0529255 5-4.58533741v-1.82932518c0-2.54210126-2.2385763-4.58533741-5-4.58533741-2.75580481 0-5 2.05292548-5 4.58533741zm1.6-1.82932518c0-1.61426681 1.4962202-2.98533741 3.4-2.98533741 1.9113319 0 3.4 1.36321638 3.4 2.98533741v1.82932518c0 1.61426681-1.4962202 2.98533741-3.4 2.98533741-1.9113319 0-3.4-1.3632164-3.4-2.98533741z"/><path d="m18.225742 20c-.6619105-1.8821579-3.139516-3.4-6.225742-3.4-3.08622603 0-5.56383151 1.5178421-6.22574196 3.4h-1.66364679c.63477079-2.8377133 3.9253937-5 7.88938875-5 3.9639951 0 7.254618 2.1622867 7.8893887 5z"/></g></svg>