<svg height="24" viewBox="0 0 24 24" width="24" xmlns="http://www.w3.org/2000/svg"><g fill="#000" fill-rule="nonzero"><path d="m7 9.41466259c0 2.54210121 2.23857625 4.58533741 5 4.58533741 2.7558048 0 5-2.0529255 5-4.58533741v-1.82932518c0-2.54210126-2.2385763-4.58533741-5-4.58533741-2.75580481 0-5 2.05292548-5 4.58533741zm3.33-1.82932518c0-.62344519.6895706-1.25533741 1.67-1.25533741.9882189 0 1.67.62432669 1.67 1.25533741v1.82932518c0 .62344521-.6895706 1.25533741-1.67 1.25533741-.9882189 0-1.67-.6243267-1.67-1.25533741z"/><path d="m16.2804771 20c-.6938841-.897743-2.2624789-1.67-4.2804771-1.67-2.01799824 0-3.58659298.772257-4.28047708 1.67h-3.60891167c.63477079-2.8377133 3.9253937-5 7.88938875-5 3.9639951 0 7.254618 2.1622867 7.8893887 5z"/></g></svg>