<svg height="24" viewBox="0 0 24 24" width="24" xmlns="http://www.w3.org/2000/svg"><g fill="#000" fill-rule="nonzero"><path d="m7 9.41466259c0 2.54210121 2.23857625 4.58533741 5 4.58533741 2.7558048 0 5-2.0529255 5-4.58533741v-1.82932518c0-2.54210126-2.2385763-4.58533741-5-4.58533741-2.75580481 0-5 2.05292548-5 4.58533741zm2.25 0v-1.82932518c0-1.24199279 1.1931437-2.33533741 2.75-2.33533741 1.5644976 0 2.75 1.08559887 2.75 2.33533741v1.82932518c0 1.24199281-1.1931437 2.33533741-2.75 2.33533741-1.5644976 0-2.75-1.0855989-2.75-2.33533741z"/><path d="m17.5266947 20c-.6755253-1.5037055-2.8181869-2.75-5.5266947-2.75-2.70850781 0-4.8511694 1.2462945-5.52669466 2.75h-2.36269409c.63477079-2.8377133 3.9253937-5 7.88938875-5 3.9639951 0 7.254618 2.1622867 7.8893887 5z"/></g></svg>