<svg height="24" viewBox="0 0 24 24" width="24" xmlns="http://www.w3.org/2000/svg"><path d="m16.8490089 14.4943433 4.3283239 4.3283239-2.3546656 2.3546656-4.3283239-4.3283239c-1.1565119.7291255-2.5261616 1.1509911-3.9943433 1.1509911-4.14213562 0-7.5-3.3578644-7.5-7.5 0-4.14213562 3.35786438-7.5 7.5-7.5 4.1421356 0 7.5 3.35786438 7.5 7.5 0 1.4681817-.4218656 2.8378314-1.1509911 3.9943433zm-6.3490089.1756567c2.3030274 0 4.17-1.8669726 4.17-4.17 0-2.30302741-1.8669726-4.17-4.17-4.17-2.30302741 0-4.17 1.86697259-4.17 4.17 0 2.3030274 1.86697259 4.17 4.17 4.17z"/></svg>