<svg width="150" height="38" viewBox="0 0 150 38" fill="none" xmlns="http://www.w3.org/2000/svg">
<path fill-rule="evenodd" clip-rule="evenodd" d="M20.4475 13.7626V19.8219C20.4475 22.8519 19.0732 24.2559 16.7083 24.2559C14.3437 24.2559 12.9694 22.8519 12.9694 19.8219V13.7626H15.0826V20.5166C15.0826 21.7433 15.718 22.4084 16.7083 22.4084C17.6985 22.4084 18.3342 21.7284 18.3342 20.5166V13.7626H20.4475ZM4.02816 9.47666C4.42714 9.47666 4.8855 9.24025 4.8855 8.72287C4.8855 8.23519 4.56038 7.89523 2.97894 7.23014C1.01338 6.4025 0.21505 5.39745 0.21505 4.09696C0.21505 2.2201 1.88519 1.05249 3.82143 1.05249C5.81632 1.05249 7.26489 2.45652 7.53099 4.52563H4.8855C4.79679 3.89024 4.50099 3.26932 3.70304 3.26932C3.30406 3.26932 2.87539 3.52058 2.87539 3.99379C2.87539 4.42208 3.18567 4.7769 4.30911 5.24973C6.6885 6.25478 7.56031 7.08243 7.56031 8.60485C7.56031 10.452 5.97888 11.6935 4.05785 11.6935C1.90003 11.6935 0.170884 10.2156 0.0524902 7.85106H2.69799C2.71283 8.61933 3.08212 9.47666 4.02816 9.47666ZM17.8021 29.6058C17.8021 31.793 16.3981 32.8719 14.8022 32.8719L17.7873 36.6701H15.393L12.5408 32.8719V36.6701H10.4865V26.3249H13.9448C16.4129 26.3249 17.8021 27.4925 17.8021 29.6058ZM15.674 29.7684V29.4284C15.674 28.6156 15.1566 28.187 14.3438 28.187H12.5408V31.0099H14.3438C15.1715 31.0099 15.674 30.5812 15.674 29.7684ZM29.2256 10.0235V11.5459H22.9889V1.20035H29.2256V2.73725H24.6884V5.51599H28.9446V7.03804H24.6884V10.0235H29.2256ZM55.7968 10.8987V11.5452H49.8411V1.20035H55.7968V1.84688H50.5322V5.91645H55.5456V6.56298H50.5322V10.8987H55.7968ZM5.66875 19.6743L6.2893 17.8267L7.93012 13.7627H10.6049V24.1079H8.16654V19.2307L7.84142 20.5609L6.54057 24.1079H4.79694L3.49609 20.5609L3.17097 19.2307V24.1079H0.73257V13.7627H3.40739L5.04821 17.8267L5.66875 19.6743ZM18.3778 11.5457V1.20054H20.4469V11.5457H18.3778ZM12.5554 11.6935C10.235 11.6935 8.87549 10.1418 8.87549 6.49124V6.25482C8.87549 2.60427 10.235 1.05253 12.5554 1.05253C14.7573 1.05253 16.1614 2.3827 16.3978 5.33847H13.841C13.7523 3.80157 13.3682 3.2842 12.6441 3.2842C11.9493 3.2842 11.5355 3.72772 11.5355 4.96918V7.77724C11.5355 9.01834 11.92 9.46185 12.6441 9.46185C13.3533 9.46185 13.7378 8.95933 13.841 7.40759H16.3978C16.1614 10.4079 14.7425 11.6935 12.5554 11.6935ZM4.42732 28.3939C3.55551 28.3939 3.02329 28.9262 3.02329 30.0934V32.9015C3.02329 34.0691 3.55551 34.6013 4.42732 34.6013C5.29913 34.6013 5.87552 34.1429 5.9349 33.0937H4.57504V31.1575H8.19589V36.6704H6.88057L6.58514 35.8869C6.15647 36.4043 5.38784 36.8181 4.42732 36.8181C1.87053 36.8181 0.36295 35.1183 0.36295 31.6307V31.3646C0.36295 27.8766 1.87053 26.1771 4.42732 26.1771C6.49644 26.1771 7.79692 27.3447 8.19589 30.1082H5.75749C5.62425 28.8375 5.1221 28.3939 4.42732 28.3939ZM46.4123 20.3344V13.7626H47.4026V19.9206C47.4026 22.9947 46.0085 24.2559 43.7323 24.2559C41.4565 24.2559 40.0621 22.9947 40.0621 19.9206V13.7626H41.0523V20.3344C41.0523 22.4298 42.0885 23.3544 43.7323 23.3544C45.3761 23.3544 46.4123 22.4298 46.4123 20.3344ZM42.9404 26.3249C45.2162 26.3249 46.4577 27.448 46.4577 29.5616C46.4577 31.6601 45.2162 32.7835 42.9404 32.7835H40.502V36.6701H39.5117V26.3249H42.9404ZM45.4084 29.7832V29.3397C45.4084 28.0095 44.5956 27.2412 43.0142 27.2412H40.502V31.882H43.0142C44.5956 31.882 45.4084 31.0985 45.4084 29.7832ZM44.1816 1.96888C42.6298 1.96888 41.6986 3.22519 41.6986 5.30878V6.97892C41.6986 9.44701 42.4669 10.792 44.1816 10.792C45.5117 10.792 46.3687 9.96438 46.6055 8.04298H47.625C47.4034 10.3192 46.2061 11.6935 44.1816 11.6935C41.9202 11.6935 40.6494 9.96438 40.6494 7.0383V5.70813C40.6494 2.82621 41.876 1.05253 44.1816 1.05253C46.1471 1.05253 47.3886 2.41239 47.625 4.67339H46.6055C46.3687 2.82621 45.5117 1.96888 44.1816 1.96888ZM58.0988 13.763H58.9955V24.1078H58.3048V15.1325L54.848 24.1078H53.9884L50.5319 15.1325V24.1078H49.8412V13.763H50.7376L54.4182 23.3199L58.0988 13.763ZM35.5792 13.7626H37.5314H37.8454V15.0189H37.5314H35.5792H32.8024V18.1963H35.5792H37.2063H37.5203V19.4526H37.2063H35.5792H32.8024V22.8519H35.5792H37.5314H37.8454V24.1078H37.5314H35.5792H31.3983V13.7626H35.5792ZM35.5511 33.1232V26.3247H36.9552V32.6059C36.9552 35.4139 35.6695 36.818 33.3195 36.818C30.9694 36.818 29.6838 35.4139 29.6838 32.6059V26.3247H31.0878V33.1232C31.0878 34.675 31.9006 35.5616 33.3195 35.5616C34.7383 35.5616 35.5511 34.675 35.5511 33.1232ZM26.9205 18.2702C28.6938 18.9943 29.4183 19.8958 29.4183 21.3737C29.4183 23.1029 27.9994 24.2556 26.0487 24.2556C23.9499 24.2556 22.413 22.9997 22.1617 20.6793H24.0237C24.2308 22.024 24.9104 22.7336 26.0487 22.7336C26.9795 22.7336 27.5117 22.2607 27.5117 21.4476C27.5117 20.7383 27.1866 20.2065 25.9451 19.7184L24.8959 19.3046C23.0484 18.5512 22.3685 17.6348 22.3685 16.3934C22.3685 14.7971 23.7432 13.6146 25.7529 13.6146C27.7482 13.6146 28.9748 14.8119 29.2702 16.881H27.423C27.2753 15.8021 26.7579 15.1519 25.6642 15.1519C24.7924 15.1519 24.216 15.6396 24.216 16.3637C24.216 16.8959 24.4821 17.28 25.5755 17.7235L26.9205 18.2702ZM23.5802 26.1772C26.0041 26.1772 27.5117 27.847 27.5117 30.995V32.0149C27.5117 35.1629 26.0041 36.8178 23.5802 36.8178C21.1418 36.8178 19.6346 35.1629 19.6346 32.0149V30.995C19.6346 27.847 21.1418 26.1772 23.5802 26.1772ZM25.6938 32.9016V30.3006C25.6938 28.6598 24.9549 27.7141 23.5802 27.7141C22.2649 27.7141 21.4521 28.6008 21.4521 30.0935V32.7093C21.4521 34.3794 22.2059 35.2958 23.5802 35.2958C24.881 35.2958 25.6938 34.4091 25.6938 32.9016ZM37.115 9.04536V1.20017H38.5191V11.5454H37.056L33.2748 4.77166L32.802 3.62632V11.5454H31.398V1.20017H32.9055L36.6422 7.96163L37.115 9.04536Z" fill="white"/>
<path d="M87.045 0.499999H89.595L90.465 4.025L90.84 6.02L92.13 0.499999H93.96L95.25 6.02L95.625 4.025L96.495 0.499999H99.045L96.585 11H94.305L93.48 8.045L93.045 5.9L92.61 8.045L91.785 11H89.505L87.045 0.499999ZM100.165 0.499999H106.615V2.39H102.25V4.73H106.405V6.62H102.25V9.125H106.615V11H100.165V0.499999ZM108.545 0.499999H111.995C114.2 0.499999 115.43 1.55 115.43 3.365C115.43 4.19 115.1 4.91 114.38 5.42C115.055 5.765 115.745 6.47 115.745 7.955C115.745 10.01 114.38 11 111.995 11H108.545V0.499999ZM112.25 4.85C113.21 4.85 113.66 4.385 113.66 3.575V3.29C113.66 2.495 113.18 2.06 112.205 2.06H110.27V4.85H112.25ZM112.37 9.455C113.405 9.455 113.945 8.96 113.945 8.075V7.745C113.945 6.845 113.45 6.365 112.43 6.365H110.27V9.455H112.37ZM88.02 13.5H91.17C94.05 13.5 95.67 14.895 95.67 18.495V18.915C95.67 22.53 94.05 24 91.17 24H88.02V13.5ZM91.41 21.765C92.535 21.765 92.97 21.27 92.97 19.965V17.535C92.97 16.215 92.475 15.75 91.41 15.75H90.645V21.765H91.41ZM97.3964 13.5H103.846V15.39H99.4814V17.73H103.636V19.62H99.4814V22.125H103.846V24H97.3964V13.5ZM107.127 20.52C107.337 21.885 108.027 22.605 109.182 22.605C110.127 22.605 110.667 22.125 110.667 21.3C110.667 20.58 110.337 20.04 109.077 19.545L108.012 19.125C106.137 18.36 105.447 17.43 105.447 16.17C105.447 14.55 106.842 13.35 108.882 13.35C110.907 13.35 112.152 14.565 112.452 16.665H110.577C110.427 15.57 109.902 14.91 108.792 14.91C107.907 14.91 107.322 15.405 107.322 16.14C107.322 16.68 107.592 17.07 108.702 17.52L110.067 18.075C111.867 18.81 112.602 19.725 112.602 21.225C112.602 22.98 111.162 24.15 109.182 24.15C107.052 24.15 105.492 22.875 105.237 20.52H107.127ZM114.583 13.5H116.008V24H114.583V13.5ZM121.914 24.15C119.499 24.15 118.149 22.38 118.149 19.5V18C118.149 15.135 119.544 13.35 121.914 13.35C123.939 13.35 125.214 14.595 125.559 16.92H124.524C124.239 15.165 123.414 14.28 121.914 14.28C120.024 14.28 119.214 15.75 119.214 18.06V19.92C119.214 21.975 120.234 23.235 121.914 23.235C123.444 23.235 124.554 22.32 124.554 20.145V19.935H122.019V19.005H125.544V24H124.779L124.674 22.665C124.179 23.655 123.054 24.15 121.914 24.15ZM127.974 24V13.5H128.829L134.124 22.08L134.634 23.07V13.5H135.339V24H134.484L129.159 15.33L128.679 14.43V24H127.974ZM90.12 33.25C90.135 34.03 90.51 34.9 91.47 34.9C91.875 34.9 92.34 34.66 92.34 34.135C92.34 33.64 92.01 33.295 90.405 32.62C88.41 31.78 87.6 30.76 87.6 29.44C87.6 27.535 89.295 26.35 91.26 26.35C93.285 26.35 94.755 27.775 95.025 29.875H92.34C92.25 29.23 91.95 28.6 91.14 28.6C90.735 28.6 90.3 28.855 90.3 29.335C90.3 29.77 90.615 30.13 91.755 30.61C94.17 31.63 95.055 32.47 95.055 34.015C95.055 35.89 93.45 37.15 91.5 37.15C89.31 37.15 87.555 35.65 87.435 33.25H90.12ZM100.966 37H98.8362V32.65L95.6712 26.5H97.9362L99.3012 29.155L99.9012 30.565L100.501 29.155L101.866 26.5H104.131L100.966 32.65V37ZM106.585 33.52C106.795 34.885 107.485 35.605 108.64 35.605C109.585 35.605 110.125 35.125 110.125 34.3C110.125 33.58 109.795 33.04 108.535 32.545L107.47 32.125C105.595 31.36 104.905 30.43 104.905 29.17C104.905 27.55 106.3 26.35 108.34 26.35C110.365 26.35 111.61 27.565 111.91 29.665H110.035C109.885 28.57 109.36 27.91 108.25 27.91C107.365 27.91 106.78 28.405 106.78 29.14C106.78 29.68 107.05 30.07 108.16 30.52L109.525 31.075C111.325 31.81 112.06 32.725 112.06 34.225C112.06 35.98 110.62 37.15 108.64 37.15C106.51 37.15 104.95 35.875 104.695 33.52H106.585ZM115.721 27.775H113.096V26.5H119.771V27.775H117.146V37H115.721V27.775ZM121.366 37V26.5H127.411V27.43H122.371V31.165H127.156V32.095H122.371V36.085H127.411V37H121.366ZM129.746 37V26.5H130.736L134.426 36.175L138.116 26.5H139.106V37H138.401V28.48L138.461 27.415L138.086 28.48L134.816 37H134.036L130.766 28.48L130.391 27.415L130.451 28.48V37H129.746Z" fill="white"/>
</svg>
