<svg width="532" height="236" viewBox="0 0 532 236" xmlns="http://www.w3.org/2000/svg">
<path d="M4.56351 152.763H8.47918V84.2228H4.56351V152.763Z"/>
<path d="M27.9737 84.2248H33.5538L68.1183 140.23L71.4452 146.694V84.2248H76.0474V152.763H70.4673L35.7092 96.1714L32.5739 90.2959V152.763H27.9737V84.2248Z"/>
<path d="M94.6359 84.2248H101.98L133.607 136.312L137.034 143.465V84.2248H143.496V152.763H136.152L104.231 99.8915L101.1 93.3315V152.763H94.6359V84.2248Z"/>
<path d="M184.816 83.2729C200.579 83.2729 210.567 94.2395 210.567 114.115V122.929C210.567 142.804 200.579 153.771 184.816 153.771C169.054 153.771 159.065 142.804 159.065 122.929V114.115C159.065 94.2395 169.054 83.2729 184.816 83.2729ZM184.816 145.449C194.607 145.449 200.776 138.593 200.776 127.824V109.222C200.776 98.4506 194.605 91.5952 184.816 91.5952C175.025 91.5952 168.856 98.4506 168.856 109.222V127.824C168.856 138.593 175.027 145.449 184.816 145.449Z"/>
<path d="M229.701 84.2248L242.525 125.641L245.367 137.39L248.105 125.641L260.934 84.2248H272.683C265.536 107.038 258.388 129.95 251.143 152.763H239.492L217.95 84.2248H229.701Z"/>
<path d="M293.764 84.2248H308.844L329.796 152.763H315.793L312.758 141.994H289.845L286.809 152.763H272.811L293.762 84.2248H293.764ZM309.527 130.143L302.971 106.547L301.302 98.714L299.638 106.547L293.082 130.143H309.529H309.527Z"/>
<path d="M329.602 96.5606V84.2248H374.642V96.5606H358.974V152.763H345.269V96.5606H329.602Z"/>
<path d="M384.414 152.763H400.569V84.2248H384.414V152.763Z"/>
<path d="M439.393 83.2809C456.329 83.2809 466.319 94.5389 466.319 117.648V119.41C466.319 142.517 456.329 153.777 439.393 153.777C422.455 153.777 412.466 142.517 412.466 119.41V117.648C412.466 94.5389 422.453 83.2809 439.393 83.2809ZM439.393 139.09C445.17 139.09 448.695 135.566 448.695 127.83V109.228C448.695 101.492 445.17 97.9676 439.393 97.9676C433.615 97.9676 430.09 101.492 430.09 109.228V127.83C430.09 135.566 433.615 139.09 439.393 139.09Z"/>
<path d="M493.382 84.2248L510.517 112.131L516.586 124.663L516.097 112.131V84.2248H531.491V152.763H517.369L500.233 124.761L494.164 112.229L494.653 124.761V152.763H479.184V84.2248H493.382Z"/>
<path d="M18.7074 19.4885C18.7074 16.3552 21.5474 14.6908 24.1917 14.6908C29.4805 14.6908 31.4383 18.804 32.0271 23.015H49.5578C47.7955 9.30421 38.198 0 24.9761 0C12.1474 0 1.07891 7.73555 1.07891 20.1731C1.07891 28.7928 6.36766 35.4526 19.392 40.9369C29.8717 45.3435 32.0271 47.5968 32.0271 50.8279C32.0271 54.2566 28.9895 55.8233 26.3452 55.8233C20.0785 55.8233 17.6297 50.1433 17.5299 45.0502H-0.000793457C0.781542 60.7208 12.2412 70.514 26.5407 70.514C39.2717 70.514 49.7514 62.2875 49.7514 50.0435C49.7514 39.957 43.9717 34.4727 28.2052 27.8128C20.761 24.6795 18.7054 22.3285 18.7054 19.4885H18.7074Z"/>
<path d="M76.0953 44.5612V25.9528C76.0953 17.7263 78.8375 14.7885 83.4417 14.7885C88.2395 14.7885 90.7861 18.2173 91.3748 28.4016H108.317C106.75 8.81325 97.4459 0 82.853 0C67.4757 0 58.4668 10.2821 58.4668 34.4747V36.0413C58.4668 60.2319 67.4757 70.516 82.853 70.516C97.3481 70.516 106.75 61.9961 108.317 42.1144H91.3748C90.6883 52.3985 88.1437 55.7275 83.4417 55.7275C78.6439 55.7275 76.0953 52.7897 76.0953 44.5632V44.5612Z"/>
<path d="M121.439 69.5361H135.15V0.977921H121.439V69.5361Z"/>
<path d="M151.992 69.5361H193.322V59.4476H163.256V39.6656H191.462V29.5771H163.256V11.1643H193.322V0.977921H151.992V69.5361Z"/>
<path d="M245.212 69.5341H254.907V0.975922H245.603V52.9653L242.469 45.7826L217.706 0.975922H207.717V69.5341H217.022V17.0557L220.157 24.6456L245.212 69.5341Z"/>
<path d="M275.978 39.2725V28.206C275.978 14.3974 282.149 6.07109 292.431 6.07109C301.246 6.07109 306.924 11.751 308.491 23.993H315.251C313.684 9.00884 305.457 0 292.431 0C277.152 0 269.025 11.753 269.025 30.8504V39.6656C269.025 59.0564 277.447 70.516 292.431 70.516C305.847 70.516 313.782 61.4074 315.251 46.3255H308.491C306.924 59.0564 301.244 64.5407 292.431 64.5407C281.071 64.5407 275.978 55.6297 275.978 39.2725Z"/>
<path d="M329.935 69.5321H369.403V65.2472H334.514V36.5163H367.737V32.2314H334.514V5.2628H369.403V0.979912H329.935V69.5321Z"/>
<path d="M439.217 36.2289V32.5168H411.937V5.23886H408.225V32.5168H380.949V36.2289H408.225V63.5089H411.937V36.2289H439.217Z"/>
<path d="M27.7701 204.271C38.2479 204.271 43.6324 199.085 43.6324 190.367V187.429C43.6324 178.616 38.2479 173.525 27.7701 173.525H11.1236V204.271H27.7701ZM4.56351 167.454H27.2812C42.3611 167.454 50.5876 174.894 50.5876 188.9C50.5876 202.803 42.3611 210.245 27.2812 210.245H11.1255V236H4.56351V167.456V167.454Z"/>
<path d="M90.9258 214.456L80.6437 181.849L79.6657 178.031L78.6858 181.849L68.4037 214.456H90.9258ZM74.7702 167.456H84.5613L107.475 236H97.7812L93.4744 222.389H65.8591L61.5523 236H51.8589L74.7721 167.456H74.7702Z"/>
<path d="M154.375 189.683V187.429C154.375 180.867 150.361 177.638 143.799 177.638H129.699V199.474H143.799C150.457 199.474 154.375 196.145 154.375 189.683ZM141.546 167.456C157.606 167.456 166.126 174.798 166.126 188.607C166.126 201.825 157.313 209.562 144.975 209.562L165.93 236H152.417L132.05 209.562H129.699V236H118.437V167.456H141.546Z"/>
<path d="M192.869 167.456V199.963L216.762 167.456H232.133L209.516 198.2L232.133 236H216.469L200.8 209.267L192.869 220.136V236H179.258V167.456H192.869Z"/>

</svg>
