<svg xmlns="http://www.w3.org/2000/svg" width="24" height="24"><g fill-rule="evenodd"><path fill-rule="nonzero" d="M12 21a9 9 0 1 1 0-18 9 9 0 0 1 0 18zm0-1.6a7.4 7.4 0 1 0 0-14.8 7.4 7.4 0 0 0 0 14.8z"/><path fill-rule="nonzero" d="M12 21c-2.415 0-4-4.062-4-9s1.585-9 4-9 4 4.062 4 9-1.585 9-4 9zm0-1.6c1.12 0 2.4-3.28 2.4-7.4 0-4.12-1.28-7.4-2.4-7.4-1.12 0-2.4 3.28-2.4 7.4 0 4.12 1.28 7.4 2.4 7.4z"/><path d="M5.332 5.956c-.354.39-.673.81-.955 1.257C5.976 8.336 8.804 9 12 9c3.196 0 6.024-.664 7.623-1.787a9.035 9.035 0 0 0-.955-1.257C17.478 6.74 14.955 7.4 12 7.4s-5.478-.659-6.668-1.444zm0 12.088a9.035 9.035 0 0 1-.955-1.257C5.976 15.664 8.804 15 12 15c3.196 0 6.024.664 7.623 1.787a9.035 9.035 0 0 1-.955 1.257C17.478 17.26 14.955 16.6 12 16.6s-5.478.659-6.668 1.444z"/><path fill-rule="nonzero" d="M4 12.8h16v-1.6H4z"/></g></svg>