<svg xmlns="http://www.w3.org/2000/svg" viewBox="0 0 387.84 236"><title>smg</title><path d="M134.2,84v39.87c0,19.94-9,29.18-24.61,29.18S85,143.77,85,123.83V84H98.9v44.45c0,8.07,4.18,12.44,10.69,12.44s10.7-4.47,10.7-12.44V84Zm-108-28.2c2.63,0,5.64-1.55,5.64-5,0-3.21-2.14-5.44-12.54-9.82C6.32,35.53,1.07,28.92,1.07,20.36c0-12.35,11-20,23.73-20,13.13,0,22.66,9.24,24.41,22.85H31.8C31.22,19,29.27,14.92,24,14.92c-2.62,0-5.45,1.65-5.45,4.77,0,2.81,2.05,5.15,9.44,8.26C43.66,34.56,49.4,40,49.4,50c0,12.15-10.4,20.32-23,20.32C12.16,70.35.78,60.62,0,45.07H17.41C17.51,50.12,19.93,55.76,26.16,55.76Zm90.63,132.45c0,14.39-9.24,21.49-19.74,21.49l19.64,25H100.94l-18.77-25v25H68.66V166.62H91.41C107.65,166.62,116.79,174.31,116.79,188.21Zm-14,1.07V187c0-5.34-3.41-8.16-8.75-8.16H82.17v18.57H94C99.48,197.45,102.79,194.63,102.79,189.28ZM192,59.36v10h-41V1.3h41V11.42H162.1V29.7h28v10h-28V59.36ZM366.8,65.12v4.25H327.61V1.3H366.8V5.56H332.16V32.34h33v4.25h-33V65.12ZM37,122.86,41,110.71,51.83,84h17.6V152h-16v-32.1l-2.14,8.76L42.69,152H31.22L22.66,128.7l-2.14-8.76V152h-16V84H22.08l10.79,26.75Zm83.63-53.48V1.31h13.61V69.38Zm-38.31,1C67,70.35,58.06,60.14,58.06,36.12V34.56C58.06,10.54,67,.33,82.27.33c14.49,0,23.73,8.75,25.28,28.2H90.73C90.14,18.42,87.62,15,82.85,15c-4.57,0-7.29,2.91-7.29,11.08V44.58c0,8.17,2.53,11.08,7.29,11.08s7.2-3.3,7.88-13.51h16.82C106,61.89,96.66,70.35,82.27,70.35ZM28.79,180.24c-5.74,0-9.24,3.5-9.24,11.18V209.9c0,7.68,3.5,11.18,9.24,11.18s9.53-3,9.92-9.92H29.76V198.42H53.58V234.7H44.93l-2-5.16a18.34,18.34,0,0,1-14.19,6.13C12,235.67,2,224.48,2,201.54v-1.76c0-22.95,9.92-34.13,26.75-34.13,13.61,0,22.17,7.68,24.79,25.87h-16C36.66,183.16,33.36,180.24,28.79,180.24Zm276.26-53V84h6.51v40.52c0,20.23-9.17,28.53-24.15,28.53s-24.15-8.3-24.15-28.53V84h6.52v43.25c0,13.78,6.82,19.87,17.63,19.87S305.05,141,305.05,127.21ZM282.2,166.62c15,0,23.15,7.39,23.15,21.3s-8.17,21.2-23.15,21.2h-16v25.57h-6.52V166.62Zm16.24,22.76v-2.92c0-8.75-5.35-13.81-15.75-13.81H266.16v30.54h16.53C293.09,203.19,298.44,198,298.44,189.38Zm-8.07-183c-10.21,0-16.34,8.27-16.34,22v11c0,16.24,5.06,25.09,16.34,25.09,8.75,0,14.39-5.45,15.95-18.09H313c-1.46,15-9.34,24-22.66,24-14.88,0-23.24-11.38-23.24-30.63V31c0-19,8.07-30.64,23.24-30.64,12.93,0,21.1,9,22.66,23.83h-6.71C304.76,12,299.12,6.36,290.37,6.36ZM381.94,84h5.9V152H383.3V93L360.55,152H354.9L332.15,93V152h-4.54V84h5.9l24.22,62.88ZM233.77,84h14.91v8.27H215.49v20.91h31v8.26h-31v22.37h33.19V152H206.26V84Zm-.19,127.4V166.62h9.24V208c0,18.48-8.46,27.72-23.92,27.72S195,226.43,195,208V166.62h9.24v44.74c0,10.21,5.35,16,14.69,16S233.58,221.57,233.58,211.36Zm-56.79-97.74c11.67,4.77,16.44,10.7,16.44,20.42,0,11.38-9.34,19-22.18,19-13.81,0-23.92-8.27-25.57-23.53h12.25c1.36,8.84,5.83,13.51,13.32,13.51,6.13,0,9.63-3.11,9.63-8.46,0-4.67-2.14-8.17-10.31-11.38l-6.9-2.72c-12.16-5-16.63-11-16.63-19.16,0-10.5,9-18.28,22.27-18.28s21.2,7.88,23.14,21.49H180.1c-1-7.1-4.38-11.37-11.58-11.37-5.73,0-9.52,3.2-9.52,8,0,3.5,1.75,6,8.94,9Zm-22,52c15.95,0,25.87,11,25.87,31.7v6.71c0,20.72-9.92,31.61-25.87,31.61s-26-10.89-26-31.61v-6.71C128.85,176.64,138.77,165.65,154.81,165.65Zm13.91,44.25V192.78c0-10.79-4.86-17-13.91-17-8.65,0-14,5.84-14,15.66v17.21c0,11,5,17,14,17C163.37,225.65,168.72,219.82,168.72,209.9Zm75.15-157V1.3h9.24V69.37h-9.63L218.6,24.8l-3.11-7.53v52.1h-9.24V1.3h9.92l24.59,44.49Z"/></svg>
