<svg xmlns="http://www.w3.org/2000/svg" viewBox="0 0 24 24"><path d="M6 4.004h7l5 5v11H6zm1.6 1.6v12.8h8.8V9.667l-4.063-4.063z"/><path d="M15.48 15.29a.679.679 0 0 1-.26.047c-.273 0-.606-.125-1.078-.327.182-.013.347-.02.496-.02.272 0 .35 0 .618.068.266.066.268.204.224.233zm-4.718.042c.105-.184.213-.38.322-.588.268-.506.439-.906.564-1.232.252.458.566.846.932 1.158.046.04.095.077.147.116-.748.15-1.395.329-1.965.546m.873-4.801c.149 0 .235.374.241.727.007.35-.074.597-.178.78-.085-.271-.125-.697-.125-.975 0 0-.006-.532.062-.532m-2.926 6.738c.085-.23.419-.687.912-1.092.03-.024.108-.097.178-.163-.516.825-.862 1.152-1.09 1.255m6.914-2.463c-.15-.147-.483-.224-.987-.23a8.284 8.284 0 0 0-1.187.085 3.062 3.062 0 0 1-.55-.38 4.033 4.033 0 0 1-.992-1.542l.037-.155s.237-1.35.173-1.806a.488.488 0 0 0-.03-.129l-.02-.055c-.064-.148-.19-.306-.39-.297l-.117-.004h-.002c-.221 0-.404.113-.45.281-.144.533.005 1.328.275 2.356l-.07.17c-.194.469-.435.942-.648 1.36l-.028.054c-.224.439-.428.812-.612 1.127l-.191.101c-.013.01-.34.18-.417.226-.65.389-1.08.83-1.152 1.18-.023.11-.006.253.11.32l.184.093c.08.04.165.059.25.059.463 0 1-.575 1.74-1.867a17.3 17.3 0 0 1 2.683-.638c.649.366 1.447.62 1.952.62.09 0 .167-.008.23-.026a.379.379 0 0 0 .228-.155c.097-.147.119-.349.09-.557a.372.372 0 0 0-.11-.191z"/></svg>