<?xml version="1.0" encoding="utf-8"?><!DOCTYPE svg PUBLIC "-//W3C//DTD SVG 1.1//EN" "http://www.w3.org/Graphics/SVG/1.1/DTD/svg11.dtd"><svg xmlns="http://www.w3.org/2000/svg" xmlns:xlink="http://www.w3.org/1999/xlink"><symbol viewBox="0 0 24 24" id="3d" xmlns="http://www.w3.org/2000/svg"><path d="m5.848 12 3.076 5.328h6.152L18.152 12l-3.076-5.328H8.924zM4 12l4-6.928h8L20 12l-4 6.928H8z"/><path d="M7.076 17.328h.861L11.013 12 7.937 6.672h-.86L8 5.072h.86l4 6.928-4 6.928H8z"/><path d="m9.609 5.072-.503.87 3.076 5.33h6.153l.622-1.079.924 1.6-.623 1.078h-8L7.378 6.15 8 5.072z"/></symbol><symbol viewBox="0 0 24 24" id="all" xmlns="http://www.w3.org/2000/svg"><g fill-rule="evenodd"><path fill-rule="nonzero" d="M12 21a9 9 0 1 1 0-18 9 9 0 0 1 0 18Zm0-1.6a7.4 7.4 0 1 0 0-14.8 7.4 7.4 0 0 0 0 14.8Z"/><path fill-rule="nonzero" d="M12 21c-2.415 0-4-4.062-4-9s1.585-9 4-9 4 4.062 4 9-1.585 9-4 9Zm0-1.6c1.12 0 2.4-3.28 2.4-7.4 0-4.12-1.28-7.4-2.4-7.4-1.12 0-2.4 3.28-2.4 7.4 0 4.12 1.28 7.4 2.4 7.4Z"/><path d="M5.332 5.956c-.354.39-.673.81-.955 1.257C5.976 8.336 8.804 9 12 9c3.196 0 6.024-.664 7.623-1.787a9.035 9.035 0 0 0-.955-1.257C17.478 6.74 14.955 7.4 12 7.4s-5.478-.659-6.668-1.444zm0 12.088a9.035 9.035 0 0 1-.955-1.257C5.976 15.664 8.804 15 12 15c3.196 0 6.024.664 7.623 1.787a9.035 9.035 0 0 1-.955 1.257C17.478 17.26 14.955 16.6 12 16.6s-5.478.659-6.668 1.444z"/><path fill-rule="nonzero" d="M4 12.8h16v-1.6H4z"/></g></symbol><symbol viewBox="0 0 24 24" id="app" xmlns="http://www.w3.org/2000/svg"><path d="M9 4.6A1.4 1.4 0 0 0 7.6 6v12A1.4 1.4 0 0 0 9 19.4h6a1.4 1.4 0 0 0 1.4-1.4V6A1.4 1.4 0 0 0 15 4.6zM9 3h6a3 3 0 0 1 3 3v12a3 3 0 0 1-3 3H9a3 3 0 0 1-3-3V6a3 3 0 0 1 3-3zm7.5 3.2v1.6h-9V6.2zm0 10v1.6h-9v-1.6z"/></symbol><symbol viewBox="0 0 24 24" id="archive" xmlns="http://www.w3.org/2000/svg"><path d="M5 4v5.003h14V4H5ZM4 3h16v7.003H4V3Z"/><path d="M8 7.003h8V6H8v1.003ZM7 5h10v3.003H7V5Z"/><path d="M7 9.003h10V8H7v1.003ZM6 7h12v3.003H6V7Z"/><path d="M4 20h16V10H4v10ZM3 9h18v12H3V9Z"/><path d="M9 12.5c0 .279.223.5.505.5h4.99a.499.499 0 1 0 0-1h-4.99a.499.499 0 0 0-.505.5Zm-1 0c0-.828.668-1.5 1.505-1.5h4.99a1.499 1.499 0 1 1 0 3h-4.99A1.499 1.499 0 0 1 8 12.5Z"/></symbol><symbol viewBox="0 0 24 24" id="arrow-down" xmlns="http://www.w3.org/2000/svg"><path d="M10.88 15.69V4h2.25v11.69l5.08-5.07 1.59 1.59L12 20l-7.79-7.79 1.59-1.59Z"/></symbol><symbol viewBox="0 0 24 24" id="arrow-down-bold" xmlns="http://www.w3.org/2000/svg"><path d="M10.34 13.63V4h3.33v9.63l4.15-4.16 2.36 2.35L12 20l-8.18-8.18 2.36-2.35Z"/></symbol><symbol viewBox="0 0 24 24" id="arrow-down-light" xmlns="http://www.w3.org/2000/svg"><path d="M11.2 16.94V4h1.6v12.94l5.63-5.64 1.13 1.13L12 20l-7.57-7.57 1.13-1.13Z"/></symbol><symbol viewBox="0 0 24 24" id="arrow-left" xmlns="http://www.w3.org/2000/svg"><path d="M8.307 10.875h11.696v2.25H8.307l5.08 5.08-1.592 1.59L4 12l7.795-7.795 1.591 1.59z"/></symbol><symbol viewBox="0 0 24 24" id="arrow-left-bold" xmlns="http://www.w3.org/2000/svg"><path d="M10.374 13.665h9.628v-3.33h-9.628l4.158-4.158-2.355-2.354L4 12l8.177 8.177 2.355-2.354z"/></symbol><symbol viewBox="0 0 24 24" id="arrow-left-light" xmlns="http://www.w3.org/2000/svg"><path d="M7.063 12.8h12.933v-1.6H7.063l5.634-5.634-1.131-1.132L4 12l7.566 7.566 1.131-1.132z"/></symbol><symbol viewBox="0 0 24 24" id="arrow-right" xmlns="http://www.w3.org/2000/svg"><path d="M15.696 10.875H4v2.25h11.696l-5.08 5.08 1.592 1.59L20.003 12l-7.795-7.795-1.591 1.59z"/></symbol><symbol viewBox="0 0 24 24" id="arrow-right-bold" xmlns="http://www.w3.org/2000/svg"><path d="M13.628 13.665H4v-3.33h9.628L9.47 6.177l2.355-2.354L20.002 12l-8.177 8.177-2.355-2.354z"/></symbol><symbol viewBox="0 0 24 24" id="arrow-right-light" xmlns="http://www.w3.org/2000/svg"><path d="M16.934 12.8H4v-1.6h12.934l-5.635-5.634 1.132-1.132L19.996 12l-7.565 7.566-1.132-1.132z"/></symbol><symbol viewBox="0 0 24 24" id="arrow-up" xmlns="http://www.w3.org/2000/svg"><path d="M13.13 8.31V20h-2.25V8.31L5.8 13.38l-1.59-1.59L12 4l7.8 7.79-1.59 1.59Z"/></symbol><symbol viewBox="0 0 24 24" id="arrow-up-bold" xmlns="http://www.w3.org/2000/svg"><path d="M13.67 10.37V20h-3.33v-9.63l-4.16 4.16-2.36-2.35L12 4l8.18 8.18-2.36 2.35Z"/></symbol><symbol viewBox="0 0 24 24" id="arrow-up-light" xmlns="http://www.w3.org/2000/svg"><path d="M12.8 7.06V20h-1.6V7.06L5.56 12.7l-1.13-1.13L12 4l7.56 7.57-1.13 1.13Z"/></symbol><symbol viewBox="0 0 24 24" id="arrow_down" xmlns="http://www.w3.org/2000/svg"><path d="M7.406 7.828 12 12.422l4.594-4.594L18 9.234l-6 6-6-6z"/></symbol><symbol viewBox="0 0 24 24" id="arrow_left" xmlns="http://www.w3.org/2000/svg"><path d="m15.422 16.078-1.406 1.406-6-6 6-6 1.406 1.406-4.594 4.594z"/></symbol><symbol viewBox="0 0 24 24" id="arrow_right" xmlns="http://www.w3.org/2000/svg"><path d="m8.578 16.359 4.594-4.594-4.594-4.594 1.406-1.406 6 6-6 6z"/></symbol><symbol viewBox="0 0 24 24" id="arrow_up" xmlns="http://www.w3.org/2000/svg"><path d="M7.406 15.422 6 14.016l6-6 6 6-1.406 1.406L12 10.828z"/></symbol><symbol viewBox="0 0 24 24" id="back" xmlns="http://www.w3.org/2000/svg"><path d="M8.306 10.875h13.28v2.25H8.306l5.08 5.08-1.591 1.59L3.999 12l7.796-7.795 1.591 1.59"/></symbol><symbol viewBox="0 0 8 8" id="clipboard" xmlns="http://www.w3.org/2000/svg"><path d="M3.5 0c-.28 0-.5.22-.5.5V1h-.75c-.14 0-.25.11-.25.25V2h3v-.75C5 1.11 4.89 1 4.75 1H4V.5c0-.28-.22-.5-.5-.5zM.25 1C.11 1 0 1.11 0 1.25v6.5c0 .14.11.25.25.25h6.5c.14 0 .25-.11.25-.25v-6.5C7 1.11 6.89 1 6.75 1H6v6H1V1H.25z"/></symbol><symbol viewBox="0 0 24 24" id="dismiss" xmlns="http://www.w3.org/2000/svg"><path d="m12 10.409 7.205-7.204 1.59 1.59L13.591 12l7.204 7.205-1.59 1.59L12 13.591l-7.205 7.204-1.59-1.59L10.409 12 3.205 4.795l1.59-1.59z"/></symbol><symbol viewBox="0 0 24 24" id="dismiss-bold" xmlns="http://www.w3.org/2000/svg"><path d="m12 9.645 6.823-6.822 2.354 2.354L14.355 12l6.822 6.823-2.354 2.354L12 14.355l-6.823 6.822-2.354-2.354L9.645 12 2.823 5.177l2.354-2.354z"/></symbol><symbol viewBox="0 0 24 24" id="dismiss-light" xmlns="http://www.w3.org/2000/svg"><path d="m12 10.869 7.434-7.435 1.132 1.132L13.13 12l7.435 7.434-1.132 1.132L12 13.13l-7.434 7.435-1.132-1.132L10.87 12 3.434 4.566l1.132-1.132z"/></symbol><symbol viewBox="0 0 24 24" id="document" xmlns="http://www.w3.org/2000/svg"><path d="M6 4.004h7l5 5v11H6v-16zm1.6 1.6v12.8h8.8V9.667l-4.063-4.063H7.6z"/><path d="M15.48 15.29a.679.679 0 0 1-.26.047c-.273 0-.606-.125-1.078-.327.182-.013.347-.02.496-.02.272 0 .35 0 .618.068.266.066.268.204.224.233zm-4.718.042c.105-.184.213-.38.322-.588.268-.506.439-.906.564-1.232.252.458.566.846.932 1.158.046.04.095.077.147.116-.748.15-1.395.329-1.965.546zm.873-4.801c.149 0 .235.374.241.727.007.35-.074.597-.178.78-.085-.271-.125-.697-.125-.975 0 0-.006-.532.062-.532zm-2.926 6.738c.085-.23.419-.687.912-1.092.03-.024.108-.097.178-.163-.516.825-.862 1.152-1.09 1.255zm6.914-2.463c-.15-.147-.483-.224-.987-.23a8.284 8.284 0 0 0-1.187.085 3.062 3.062 0 0 1-.55-.38 4.033 4.033 0 0 1-.992-1.542l.037-.155s.237-1.35.173-1.806a.488.488 0 0 0-.03-.129l-.02-.055c-.064-.148-.19-.306-.39-.297l-.117-.004h-.002c-.221 0-.404.113-.45.281-.144.533.005 1.328.275 2.356l-.07.17c-.194.469-.435.942-.648 1.36l-.028.054c-.224.439-.428.812-.612 1.127l-.191.101c-.013.01-.34.18-.417.226-.65.389-1.08.83-1.152 1.18-.023.11-.006.253.11.32l.184.093c.08.04.165.059.25.059.463 0 1-.575 1.74-1.867a17.3 17.3 0 0 1 2.683-.638c.649.366 1.447.62 1.952.62.09 0 .167-.008.23-.026a.379.379 0 0 0 .228-.155c.097-.147.119-.349.09-.557a.372.372 0 0 0-.11-.191z"/></symbol><symbol viewBox="0 0 24 24" id="download" xmlns="http://www.w3.org/2000/svg"><path fill-rule="evenodd" d="M4 20v-1.6h16V20H4Zm7.2-15.742h1.6v11.08l3.725-3.726 1.132 1.131L12 18.4l-5.657-5.657 1.132-1.131 3.725 3.725V4.257Z"/></symbol><symbol viewBox="0 0 24 24" id="expand" xmlns="http://www.w3.org/2000/svg"><path d="m14.845 10.333 5.488-5.488v5.488H22V2h-8.333v1.667h5.488l-5.488 5.488v1.179h1.179zm-5.69 3.334-5.488 5.488v-5.488H2V22h8.333v-1.667H4.845l5.488-5.488v-1.179H9.154z"/></symbol><symbol viewBox="0 0 24 24" id="external" xmlns="http://www.w3.org/2000/svg"><path d="m13.819 8.592-8.27 8.27 1.59 1.592 8.27-8.271v7.183h2.25V6.342H6.636v2.25z"/></symbol><symbol viewBox="0 0 24 24" id="external-bold" xmlns="http://www.w3.org/2000/svg"><path d="M14.329 12.027 7.52 18.835 5.166 16.48l6.808-6.808h-5.88v-3.33H17.66v11.565h-3.33z"/></symbol><symbol viewBox="0 0 24 24" id="external-light" xmlns="http://www.w3.org/2000/svg"><path d="M16.054 9.076 6.908 18.22 5.777 17.09l9.145-9.146H6.954v-1.6h10.7v10.7h-1.6z"/></symbol><symbol viewBox="0 0 24 24" id="external-old" xmlns="http://www.w3.org/2000/svg"><path d="M10.4 7.2v1.6H5.6v9.6h9.6v-4.8h1.6V20H4V7.2h6.4Zm8-.469-7.834 7.835-1.132-1.132L17.27 5.6H12V4h8v8h-1.6V6.731Z"/></symbol><symbol viewBox="0 0 24 24" id="filter" xmlns="http://www.w3.org/2000/svg"><path d="M6 12.984v-1.969h12v1.969H6zM3 6h18v2.016H3V6zm6.984 12v-2.016h4.031V18H9.984z"/></symbol><symbol viewBox="0 0 24 24" id="game" xmlns="http://www.w3.org/2000/svg"><g fill-rule="evenodd"><path d="M12.8 6.5V8H15a6 6 0 1 1 0 12H9A6 6 0 1 1 9 8h2.2V6.5A3.8 3.8 0 0 1 15 2.7v1.6a2.2 2.2 0 0 0-2.2 2.2zM9 9.6a4.4 4.4 0 1 0 0 8.8h6a4.4 4.4 0 1 0 0-8.8z" fill-rule="nonzero"/><path d="M7.7 13.2v-1.7h1.6v1.7H11v1.6H9.3v1.7H7.7v-1.7H6v-1.6z" fill-rule="nonzero"/><circle cx="16.75" cy="12.75" r="1.25"/><circle cx="14.25" cy="15.25" r="1.25"/></g></symbol><symbol viewBox="0 0 24 24" id="grid" xmlns="http://www.w3.org/2000/svg"><path d="M4 4h6.857v6.857H4V4zm0 9.143h6.857V20H4v-6.857zM13.143 4H20v6.857h-6.857V4zm0 9.143H20V20h-6.857v-6.857z"/></symbol><symbol viewBox="0 0 24 24" id="home" xmlns="http://www.w3.org/2000/svg"><path d="M6.25 21v-6H8.5v6H20V8l-8-6.5L4 8v13h2.25Zm0-8.25V9.07L12 4.4l5.75 4.67v9.68h-7v-6h-4.5Z"/></symbol><symbol viewBox="0 0 24 24" id="list" xmlns="http://www.w3.org/2000/svg"><path d="M5 5h14v2H5V5zm0 4h14v2H5V9zm0 4h14v2H5v-2zm0 4h14v2H5v-2z"/></symbol><symbol viewBox="0 0 24 24" id="mail" xmlns="http://www.w3.org/2000/svg"><path d="M18.4 8.421V7.6H5.6v.821L12 12.08l6.4-3.658zm0 1.843L12 13.921l-6.4-3.657V16.4h12.8v-6.136zM4 6h16v12H4V6z"/></symbol><symbol viewBox="0 0 24 24" id="mediaplayer-rotational" xmlns="http://www.w3.org/2000/svg"><g fill-rule="evenodd"><path d="m8.042 14.492 1.18-1.34c.858.16 1.795.248 2.778.248 4.087 0 7.4-1.522 7.4-3.4S16.087 6.6 12 6.6 4.6 8.122 4.6 10c0 .914.784 1.743 2.06 2.354l-1.71.755C3.73 12.255 3 11.175 3 10c0-2.761 4.03-5 9-5s9 2.239 9 5-4.03 5-9 5c-1.42 0-2.764-.183-3.958-.508z"/><path d="m11.57 11.523-1.14-1.125L6.874 14l3.56 3.572 1.134-1.13-2.44-2.447z" fill-rule="nonzero"/></g></symbol><symbol viewBox="0 0 24 24" id="mediaplayer-sketchfab" xmlns="http://www.w3.org/2000/svg"><path d="m5.848 12 3.076 5.328h6.152L18.152 12l-3.076-5.328H8.924zM4 12l4-6.928h8L20 12l-4 6.928H8z"/><path d="M7.076 17.328h.861L11.013 12 7.937 6.672h-.86L8 5.072h.86l4 6.928-4 6.928H8z"/><path d="m9.609 5.072-.503.87 3.076 5.33h6.153l.622-1.079.924 1.6-.623 1.078h-8L7.378 6.15 8 5.072z"/></symbol><symbol viewBox="0 0 24 24" id="mediaplayer-youtube" xmlns="http://www.w3.org/2000/svg"><path d="M5.6 7.6v8.8h12.8V7.6zM4 6h16v12H4z"/><path d="m16 12-6 3.464V8.536z"/></symbol><symbol viewBox="0 0 24 24" id="menu-bold" xmlns="http://www.w3.org/2000/svg"><path d="M20 16.67V20H4v-3.33zm0-6.335v3.33H4v-3.33zM20 4v3.33H4V4z"/></symbol><symbol viewBox="0 0 24 24" id="menu-light" xmlns="http://www.w3.org/2000/svg"><path d="M20 18.4V20H4v-1.6zm0-7.2v1.6H4v-1.6zM20 4v1.6H4V4z"/></symbol><symbol viewBox="0 0 24 24" id="menu-regular" xmlns="http://www.w3.org/2000/svg"><path d="M20 17.75V20H4v-2.25zm0-6.875v2.25H4v-2.25zM20 4v2.25H4V4z"/></symbol><symbol viewBox="0 0 24 24" id="pdf" xmlns="http://www.w3.org/2000/svg"><path d="M6 4.004h7l5 5v11H6v-16zm1.6 1.6v12.8h8.8V9.667l-4.063-4.063H7.6z"/><path d="M15.48 15.29a.679.679 0 0 1-.26.047c-.273 0-.606-.125-1.078-.327.182-.013.347-.02.496-.02.272 0 .35 0 .618.068.266.066.268.204.224.233zm-4.718.042c.105-.184.213-.38.322-.588.268-.506.439-.906.564-1.232.252.458.566.846.932 1.158.046.04.095.077.147.116-.748.15-1.395.329-1.965.546zm.873-4.801c.149 0 .235.374.241.727.007.35-.074.597-.178.78-.085-.271-.125-.697-.125-.975 0 0-.006-.532.062-.532zm-2.926 6.738c.085-.23.419-.687.912-1.092.03-.024.108-.097.178-.163-.516.825-.862 1.152-1.09 1.255zm6.914-2.463c-.15-.147-.483-.224-.987-.23a8.284 8.284 0 0 0-1.187.085 3.062 3.062 0 0 1-.55-.38 4.033 4.033 0 0 1-.992-1.542l.037-.155s.237-1.35.173-1.806a.488.488 0 0 0-.03-.129l-.02-.055c-.064-.148-.19-.306-.39-.297l-.117-.004h-.002c-.221 0-.404.113-.45.281-.144.533.005 1.328.275 2.356l-.07.17c-.194.469-.435.942-.648 1.36l-.028.054c-.224.439-.428.812-.612 1.127l-.191.101c-.013.01-.34.18-.417.226-.65.389-1.08.83-1.152 1.18-.023.11-.006.253.11.32l.184.093c.08.04.165.059.25.059.463 0 1-.575 1.74-1.867a17.3 17.3 0 0 1 2.683-.638c.649.366 1.447.62 1.952.62.09 0 .167-.008.23-.026a.379.379 0 0 0 .228-.155c.097-.147.119-.349.09-.557a.372.372 0 0 0-.11-.191z"/></symbol><symbol viewBox="0 0 24 24" id="people" xmlns="http://www.w3.org/2000/svg"><path d="M8.6 7.585v1.83c0 1.622 1.489 2.985 3.4 2.985 1.904 0 3.4-1.371 3.4-2.985v-1.83C15.4 5.963 13.911 4.6 12 4.6c-1.904 0-3.4 1.371-3.4 2.985Zm-1.6 0C7 5.053 9.244 3 12 3c2.761 0 5 2.043 5 4.585v1.83C17 11.947 14.756 14 12 14c-2.761 0-5-2.043-5-4.585v-1.83ZM4.11 20c.635-2.838 3.926-5 7.89-5 3.964 0 7.255 2.162 7.89 5h-1.664c-.662-1.882-3.14-3.4-6.226-3.4S6.436 18.118 5.774 20H4.111Z"/></symbol><symbol viewBox="0 0 24 24" id="person" xmlns="http://www.w3.org/2000/svg"><path d="M7 9.415C7 11.957 9.239 14 12 14c2.756 0 5-2.053 5-4.585v-1.83C17 5.043 14.761 3 12 3 9.244 3 7 5.053 7 7.585zm2.25 0v-1.83c0-1.242 1.193-2.335 2.75-2.335 1.564 0 2.75 1.086 2.75 2.335v1.83c0 1.242-1.193 2.335-2.75 2.335-1.564 0-2.75-1.086-2.75-2.335zM17.527 20c-.676-1.504-2.818-2.75-5.527-2.75S7.149 18.496 6.473 20H4.111c.634-2.838 3.925-5 7.889-5 3.964 0 7.255 2.162 7.89 5z"/></symbol><symbol viewBox="0 0 24 24" id="person-bold" xmlns="http://www.w3.org/2000/svg"><path d="M7 9.415C7 11.957 9.239 14 12 14c2.756 0 5-2.053 5-4.585v-1.83C17 5.043 14.761 3 12 3 9.244 3 7 5.053 7 7.585zm3.33-1.83c0-.623.69-1.255 1.67-1.255.988 0 1.67.624 1.67 1.255v1.83c0 .623-.69 1.255-1.67 1.255-.988 0-1.67-.624-1.67-1.255zM16.28 20c-.693-.898-2.262-1.67-4.28-1.67-2.018 0-3.587.772-4.28 1.67H4.11c.635-2.838 3.926-5 7.89-5 3.964 0 7.255 2.162 7.89 5z"/></symbol><symbol viewBox="0 0 24 24" id="person-light" xmlns="http://www.w3.org/2000/svg"><path d="M7 9.415C7 11.957 9.239 14 12 14c2.756 0 5-2.053 5-4.585v-1.83C17 5.043 14.761 3 12 3 9.244 3 7 5.053 7 7.585zm1.6-1.83C8.6 5.971 10.096 4.6 12 4.6c1.911 0 3.4 1.363 3.4 2.985v1.83c0 1.614-1.496 2.985-3.4 2.985-1.911 0-3.4-1.363-3.4-2.985zM18.226 20c-.662-1.882-3.14-3.4-6.226-3.4S6.436 18.118 5.774 20H4.111c.634-2.838 3.925-5 7.889-5 3.964 0 7.255 2.162 7.89 5z"/></symbol><symbol viewBox="0 0 24 24" id="photo" xmlns="http://www.w3.org/2000/svg"><path d="M5.016 17.016h13.969l-4.5-6-3.469 4.5-2.531-3zM21 3c.984 0 2.016 1.031 2.016 2.016v13.969c0 .984-1.031 2.016-2.016 2.016H3c-1.078 0-2.016-.938-2.016-2.016V5.016C.984 4.032 2.015 3 3 3h18z"/></symbol><symbol viewBox="0 0 24 24" id="print" xmlns="http://www.w3.org/2000/svg"><path d="M17 4v4h3v8h-3v4H7v-4H4V8h3V4zm-1.6 9.6H8.6v4.8h6.8zm3-4H5.6v4.8l1.399-.001L7 12h10l-.001 2.399 1.401.001zm-3-4H8.6V8h6.8z"/></symbol><symbol viewBox="0 0 24 24" id="remove" xmlns="http://www.w3.org/2000/svg"><path d="m12 10.869 7.434-7.435 1.132 1.132L13.13 12l7.435 7.434-1.132 1.132L12 13.13l-7.434 7.435-1.132-1.132L10.87 12 3.434 4.566l1.132-1.132z"/></symbol><symbol viewBox="0 0 24 24" id="room" xmlns="http://www.w3.org/2000/svg"><path d="M12 11.484c1.359 0 2.484-1.125 2.484-2.484S13.359 6.516 12 6.516 9.516 7.641 9.516 9s1.125 2.484 2.484 2.484zm0-9.468A6.942 6.942 0 0 1 18.984 9c0 5.25-6.984 12.984-6.984 12.984S5.016 14.25 5.016 9A6.942 6.942 0 0 1 12 2.016z"/></symbol><symbol viewBox="0 0 24 24" id="rotate-clockwise" xmlns="http://www.w3.org/2000/svg"><path d="M17.81 15.354a6.74 6.74 0 0 1-1.547 1.824l-.899-1.091c.488-.402.902-.89 1.22-1.44l1.225.707Zm.472-1A6.693 6.693 0 0 0 18.707 12h-1.414c0 .654-.118 1.28-.335 1.857l1.324.497Zm-2.928 3.455a6.663 6.663 0 0 1-2.251.808l-.233-1.395a5.258 5.258 0 0 0 1.777-.637l.707 1.224ZM12 18.707a6.707 6.707 0 0 1 0-13.414v1.414a5.293 5.293 0 0 0 0 10.586v1.414ZM12 2l4 4-4 4V2Z"/></symbol><symbol viewBox="0 0 24 24" id="rotate-counterclockwise" xmlns="http://www.w3.org/2000/svg"><path d="M6.19 15.354a6.74 6.74 0 0 0 1.547 1.824l.899-1.091a5.319 5.319 0 0 1-1.22-1.44l-1.225.707Zm-.472-1A6.693 6.693 0 0 1 5.293 12h1.414c0 .654.118 1.28.335 1.857l-1.324.497Zm2.928 3.455a6.663 6.663 0 0 0 2.251.808l.233-1.395a5.258 5.258 0 0 1-1.777-.637l-.707 1.224Zm3.354.898a6.707 6.707 0 0 0 0-13.414v1.414a5.293 5.293 0 0 1 0 10.586v1.414ZM12 2 8 6l4 4V2Z"/></symbol><symbol viewBox="0 0 24 24" id="search" xmlns="http://www.w3.org/2000/svg"><path d="M14.213 6.787a5.252 5.252 0 0 0-7.425 7.426 5.254 5.254 0 0 0 7.425 0 5.254 5.254 0 0 0 0-7.426Zm.736 9.753a7.502 7.502 0 1 1 .855-11.344 7.506 7.506 0 0 1 .736 9.753l4.255 4.256-1.59 1.59-4.256-4.255Z"/></symbol><symbol viewBox="0 0 24 24" id="search-bold" xmlns="http://www.w3.org/2000/svg"><path d="m16.849 14.494 4.328 4.329-2.354 2.354-4.329-4.328a7.5 7.5 0 1 1 2.355-2.355zm-6.349.176a4.17 4.17 0 1 0 0-8.34 4.17 4.17 0 0 0 0 8.34z"/></symbol><symbol viewBox="0 0 24 24" id="search-light" xmlns="http://www.w3.org/2000/svg"><path d="M15.209 16.34a7.502 7.502 0 1 1 .596-11.144 7.505 7.505 0 0 1 .535 10.013l4.226 4.225-1.132 1.132zm-.536-1.667a5.902 5.902 0 1 0-8.345 0 5.904 5.904 0 0 0 8.345 0z"/></symbol><symbol viewBox="0 0 24 24" id="taxonomy" xmlns="http://www.w3.org/2000/svg"><path d="M7 3H5v16h16v-2H7V3z"/></symbol><symbol viewBox="0 0 24 24" id="video" xmlns="http://www.w3.org/2000/svg"><g fill-rule="evenodd"><path d="M5.6 7.6v8.8h12.8V7.6zM4 6h16v12H4z" fill-rule="nonzero"/><path d="m16 12-6 3.464V8.536z"/></g></symbol><symbol viewBox="0 0 24 24" id="xml" xmlns="http://www.w3.org/2000/svg"><path d="M16.431 4 9.32 19.999H7.569L14.68 4zm.003 3.434L21 12l-4.566 4.566-1.131-1.132L18.737 12l-3.434-3.434zm-8.868 0 1.131 1.132L5.263 12l3.434 3.434-1.131 1.132L3 12z"/></symbol><symbol viewBox="0 0 24 24" id="zoomin" xmlns="http://www.w3.org/2000/svg"><path d="M14.673 14.673a5.902 5.902 0 1 0-8.345 0 5.904 5.904 0 0 0 8.345 0Zm.536 1.667a7.502 7.502 0 1 1 .596-11.144 7.505 7.505 0 0 1 .535 10.013l4.226 4.225-1.132 1.132-4.225-4.226Z"/><path d="M6.5 11.3h8V9.7h-8z"/><path d="M9.7 6.5v8h1.6v-8z"/></symbol><symbol viewBox="0 0 24 24" id="zoomout" xmlns="http://www.w3.org/2000/svg"><path d="M14.673 14.673a5.902 5.902 0 1 0-8.345 0 5.904 5.904 0 0 0 8.345 0Zm.536 1.667a7.502 7.502 0 1 1 .596-11.144 7.505 7.505 0 0 1 .535 10.013l4.226 4.225-1.132 1.132-4.225-4.226Z"/><path d="M6.5 11.3h8V9.7h-8z"/></symbol></svg>